<svg xmlns="http://www.w3.org/2000/svg" xmlns:xlink="http://www.w3.org/1999/xlink" version="1.0" x="0px" y="0px" viewBox="0 0 100 125" style="enable-background:new 0 0 100 100;" xml:space="preserve"><g><path d="M76.2,30.4l-7.1-7.1c-0.8-0.8-2-0.8-2.8,0l-4,4c-0.8,0.8-0.8,2,0,2.8l7.1,7.1c0.4,0.4,0.9,0.6,1.4,0.6s1-0.2,1.4-0.6l4-4   C76.9,32.5,76.9,31.2,76.2,30.4z"/><path d="M35.8,54.4l-0.6,7.7c0,0.6,0.2,1.2,0.6,1.6c0.4,0.4,0.9,0.6,1.4,0.6c0,0,0.1,0,0.1,0l7.6-0.5c0.5,0,0.9-0.2,1.3-0.6   l19.3-19.3c0.4-0.4,0.6-0.9,0.6-1.4s-0.2-1-0.6-1.4l-7.1-7.1c-0.8-0.8-2-0.8-2.8,0L36.4,53.2C36.1,53.5,35.9,54,35.8,54.4z"/><path d="M69.2,46.8c-1.1,0-2,0.9-2,2v20.5c0,2.2-1.8,3.9-3.9,3.9H31.2c-2.2,0-3.9-1.8-3.9-3.9V36.2c0-2.2,1.8-3.9,3.9-3.9h19.5   c1.1,0,2-0.9,2-2s-0.9-2-2-2H31.2c-4.4,0-7.9,3.6-7.9,7.9v33.1c0,4.4,3.6,7.9,7.9,7.9h32.1c4.4,0,7.9-3.6,7.9-7.9V48.8   C71.2,47.7,70.4,46.8,69.2,46.8z"/></g><text x="0" y="115" fill="#000000" font-size="5px" font-weight="bold" font-family="'Helvetica Neue', Helvetica, Arial-Unicode, Arial, Sans-serif">Created by C. V. Galli</text><text x="0" y="120" fill="#000000" font-size="5px" font-weight="bold" font-family="'Helvetica Neue', Helvetica, Arial-Unicode, Arial, Sans-serif">from the Noun Project</text></svg>